Coordinates
version=1
nRows=5
nColumns=40
inDegrees=yes

Units are S.I. units (second, meters, Newtons, ...)
Angles are in degrees.

endheader
time	pelvis_tilt	pelvis_list	pelvis_rotation	pelvis_tx	pelvis_ty	pelvis_tz	hip_flexion_r	hip_adduction_r	hip_rotation_r	knee_angle_r	knee_angle_r_beta	ankle_angle_r	subtalar_angle_r	mtp_angle_r	hip_flexion_l	hip_adduction_l	hip_rotation_l	knee_angle_l	knee_angle_l_beta	ankle_angle_l	subtalar_angle_l	mtp_angle_l	lumbar_extension	lumbar_bending	lumbar_rotation	arm_flex_r	arm_add_r	arm_rot_r	elbow_flex_r	pro_sup_r	wrist_flex_r	wrist_dev_r	arm_flex_l	arm_add_l	arm_rot_l	elbow_flex_l	pro_sup_l	wrist_flex_l	wrist_dev_l
     57.66114286	     -5.49290988	     -3.06210887	     -3.56984006	      1.09110157	      0.91742859	      0.44800238	     30.69002160	     -3.25630795	    -12.78275220	     15.09461489	     15.09461489	      2.95648897	      4.28948478	      9.43383692	     -2.77519565	     -2.40953344	    -15.85084834	      9.40992117	      9.40992117	     18.48162899	     -1.85554690	     -6.23770348	    -11.02802262	      7.01342504	      1.33500518	    -17.54521697	    -11.83837456	    -19.60717869	     19.68150095	     47.77880989	      0.00000000	      0.00000000	     29.82204152	    -21.75603100	     -7.38379502	     85.34914678	     48.04828215	      0.00000000	      0.00000000
     57.67228571	     -5.40639112	     -3.09000120	     -3.53744752	      1.09307025	      0.91534990	      0.44976473	     30.02042903	     -2.88626381	    -13.39336808	     14.04600539	     14.04600539	      2.84208823	      4.87451480	      9.62285140	     -3.56661409	     -2.55946931	    -15.82322728	      9.62124730	      9.62124730	     19.15314878	     -1.73931744	     -6.16499632	    -10.90474475	      7.02483881	      1.67275046	    -19.20057525	    -11.60332263	    -19.74311056	     19.65241741	     47.76913641	      0.00000000	      0.00000000	     29.93737026	    -21.46925209	     -7.60400196	     87.65398238	     48.11240622	      0.00000000	      0.00000000
     57.68342857	     -5.45536275	     -3.06593390	     -3.50109759	      1.09498323	      0.91323192	      0.45172179	     29.80710259	     -2.64292102	    -13.67615079	     13.98243991	     13.98243991	      2.73190677	      4.84013082	      9.48331162	     -4.16640575	     -2.68286997	    -15.70898945	      9.88162379	      9.88162379	     19.67744548	     -1.77968459	     -6.21440239	    -10.55120854	      6.98871473	      1.66922100	    -20.41642026	    -11.39445121	    -19.81069291	     19.41322813	     47.77098748	      0.00000000	      0.00000000	     30.04219263	    -21.68143657	     -7.86279601	     88.55007883	     48.14870855	      0.00000000	      0.00000000
     57.69457143	     -5.45356396	     -3.19810972	     -3.47722128	      1.09705403	      0.91132115	      0.45404183	     29.34534093	     -2.19490759	    -13.77064422	     13.81941609	     13.81941609	      0.84653644	      4.32409670	      4.33298825	     -4.45751022	     -3.20136015	    -16.22944059	     11.06272310	     11.06272310	     21.40390439	     -0.71624089	     -4.19341874	    -10.43137581	      7.05760127	      1.36685092	    -21.63063909	    -11.24202279	    -19.76648615	     20.72757112	     47.64764190	      0.00000000	      0.00000000	     28.77202289	    -21.69039035	     -9.35469565	     92.85705339	     48.36278027	      0.00000000	      0.00000000
     57.70571429	     -5.45753647	     -3.36871257	     -3.43457252	      1.09906923	      0.90972837	      0.45648266	     29.15153465	     -1.81266803	    -13.64139251	     14.47203647	     14.47203647	     -0.23441513	      3.41436462	      1.23670928	     -4.81709708	     -3.70129368	    -16.28624649	     11.96687060	     11.96687060	     22.15188873	     -0.62198706	     -3.83159616	    -10.23060660	      7.17376297	      1.33834843	    -22.23616948	    -11.04820345	    -19.51641681	     20.47044397	     47.60461937	      0.00000000	      0.00000000	     28.19968829	    -21.68527399	     -9.79318315	     94.86822482	     48.45673556	      0.00000000	      0.00000000
